<svg id="visual" viewBox="0 0 1300 500" width="1300" height="500" xmlns="http://www.w3.org/2000/svg" xmlns:xlink="http://www.w3.org/1999/xlink" version="1.1"><rect x="0" y="0" width="1300" height="500" fill="#F2F6FF"></rect><path d="M0 149L31 147.7C62 146.3 124 143.7 185.8 172.3C247.7 201 309.3 261 371.2 264C433 267 495 213 557 186C619 159 681 159 743 193.3C805 227.7 867 296.3 928.8 311.2C990.7 326 1052.3 287 1114.2 253.7C1176 220.3 1238 192.7 1269 178.8L1300 165L1300 501L1269 501C1238 501 1176 501 1114.2 501C1052.3 501 990.7 501 928.8 501C867 501 805 501 743 501C681 501 619 501 557 501C495 501 433 501 371.2 501C309.3 501 247.7 501 185.8 501C124 501 62 501 31 501L0 501Z" fill="#fc5c7d" stroke-linecap="round" stroke-linejoin="miter"></path></svg>