<svg id="Layer_1" data-name="Layer 1" xmlns="http://www.w3.org/2000/svg" viewBox="0 0 722.206 518.839">
  <g>
    <g>
      <rect id="c_3_c" x="39.261" y="29.156" width="254.186" height="254.186" fill="#f4f4f4"></rect>
      <rect id="c_3_c-2" data-name="c_3_c" x="36.347" y="29.156" width="2.913" height="254.186" fill="#f4f4f4"></rect>
      <rect id="c_3_c-3" data-name="c_3_c" x="36.347" y="29.156" width="2.913" height="254.186" fill="#292a2e" opacity="0.05"></rect>
      <polygon id="c_3_c-4" data-name="c_3_c" points="100.838 204.311 100.838 137.808 155.314 137.808 155.314 176.445 239.698 176.445 239.698 244.856 275.562 244.856 275.562 283.342 239.698 283.342 232.789 283.342 51.488 283.342 51.488 204.311 100.838 204.311" fill="#292a2e" opacity="0.05"></polygon>
      <g id="c_3_wh">
        <rect id="c_3_wh-2" data-name="c_3_wh" x="108.652" y="145.028" width="39.67" height="7.221" fill="#fffffa" opacity="0.34"></rect>
        <rect id="c_3_wh-3" data-name="c_3_wh" x="108.652" y="159.991" width="39.67" height="7.221" fill="#fffffa" opacity="0.34"></rect>
        <rect id="c_3_wh-4" data-name="c_3_wh" x="108.652" y="174.954" width="39.67" height="7.221" fill="#fffffa" opacity="0.34"></rect>
      </g>
      <g id="c_3_wh-5" data-name="c_3_wh">
        <rect id="c_3_wh-6" data-name="c_3_wh" x="58.523" y="211.32" width="7.312" height="7.221" fill="#fffffa" opacity="0.34"></rect>
        <rect id="c_3_wh-7" data-name="c_3_wh" x="58.523" y="226.283" width="7.312" height="7.221" fill="#fffffa" opacity="0.34"></rect>
        <rect id="c_3_wh-8" data-name="c_3_wh" x="58.523" y="241.246" width="7.312" height="7.221" fill="#fffffa" opacity="0.34"></rect>
        <rect id="c_3_wh-9" data-name="c_3_wh" x="72.049" y="211.32" width="7.312" height="7.221" fill="#fffffa" opacity="0.34"></rect>
        <rect id="c_3_wh-10" data-name="c_3_wh" x="72.049" y="226.283" width="7.312" height="7.221" fill="#fffffa" opacity="0.34"></rect>
        <rect id="c_3_wh-11" data-name="c_3_wh" x="72.049" y="241.246" width="7.312" height="7.221" fill="#fffffa" opacity="0.34"></rect>
        <rect id="c_3_wh-12" data-name="c_3_wh" x="85.21" y="211.32" width="7.312" height="7.221" fill="#fffffa" opacity="0.34"></rect>
        <rect id="c_3_wh-13" data-name="c_3_wh" x="85.21" y="226.283" width="7.312" height="7.221" fill="#fffffa" opacity="0.34"></rect>
        <rect id="c_3_wh-14" data-name="c_3_wh" x="85.21" y="241.246" width="7.312" height="7.221" fill="#fffffa" opacity="0.34"></rect>
      </g>
      <polygon points="39.261 154.823 90.407 154.823 90.407 29.156 94.637 29.156 94.637 154.823 232.789 154.823 232.789 29.156 237.019 29.156 237.019 154.823 293.447 154.823 293.447 159.053 237.019 159.053 237.019 283.342 232.789 283.342 232.789 159.053 94.637 159.053 94.637 283.342 90.407 283.342 90.407 159.053 39.261 159.053 39.261 154.823" fill="#fff"></polygon>
      <rect id="c_3_c-5" data-name="c_3_c" x="29.135" y="283.035" width="274.438" height="8.453" fill="#f4f4f4"></rect>
      <rect id="c_3_c-6" data-name="c_3_c" x="29.135" y="283.035" width="274.438" height="8.453" fill="#292a2e" opacity="0.1"></rect>
      <rect id="c_3_c-7" data-name="c_3_c" x="25.172" y="283.035" width="3.962" height="8.453" fill="#292a2e" opacity="0.1"></rect>
      <rect id="c_3_c-8" data-name="c_3_c" x="25.172" y="283.035" width="3.962" height="8.453" fill="#292a2e" opacity="0.1"></rect>
      <g>
        <rect x="36.347" y="33.693" width="257.1" height="6.285" transform="translate(329.794 73.672) rotate(-180)" fill="#fff"></rect>
        <rect x="36.347" y="45.432" width="257.1" height="6.285" transform="translate(329.794 97.15) rotate(-180)" fill="#fff"></rect>
        <rect x="36.347" y="57.172" width="257.1" height="6.285" transform="translate(329.794 120.628) rotate(-180)" fill="#fff"></rect>
        <rect x="36.347" y="68.911" width="257.1" height="6.285" transform="translate(329.794 144.106) rotate(-180)" fill="#fff"></rect>
        <rect x="36.347" y="80.65" width="257.1" height="6.285" transform="translate(329.794 167.585) rotate(-180)" fill="#fff"></rect>
      </g>
      <rect x="63.655" y="29.156" width="3.853" height="64.868" transform="translate(131.162 123.179) rotate(-180)" fill="#fff"></rect>
      <circle cx="65.254" cy="98.046" r="5.293" fill="#fff"></circle>
    </g>
    <g>
      <rect x="513.621" y="27.736" width="106.951" height="139.209" fill="#f4f4f4"></rect>
      <rect x="620.572" y="27.736" width="3.469" height="139.209" transform="translate(1244.612 194.681) rotate(180)" fill="#f4f4f4"></rect>
      <rect x="620.572" y="27.736" width="3.469" height="139.209" transform="translate(1244.612 194.681) rotate(180)" fill="#292a2e" opacity="0.05"></rect>
      <rect x="533.103" y="53.094" width="67.986" height="88.492" fill="#292a2e" opacity="0.05"></rect>
      <rect x="597.546" y="53.094" width="3.543" height="88.492" fill="#292a2e" opacity="0.03"></rect>
      <rect x="620.572" y="201.179" width="87.468" height="88.272" fill="#f4f4f4"></rect>
      <rect x="636.505" y="217.259" width="55.601" height="56.112" fill="#292a2e" opacity="0.05"></rect>
      <rect x="708.04" y="201.179" width="3.469" height="88.272" transform="translate(1419.549 490.629) rotate(180)" fill="#f4f4f4"></rect>
      <rect x="708.04" y="201.179" width="3.469" height="88.272" transform="translate(1419.549 490.629) rotate(180)" fill="#292a2e" opacity="0.05"></rect>
      <rect x="688.563" y="217.259" width="3.543" height="56.112" fill="#292a2e" opacity="0.03"></rect>
    </g>
    <g>
      <polygon points="590.19 264.833 417.924 123.577 245.767 264.833 417.979 349.954 590.19 264.833" fill="none"></polygon>
      <path d="M417.979,350.7a.75.75,0,0,1-.333-.078L245.435,265.505a.749.749,0,0,1-.143-1.252L417.449,123a.748.748,0,0,1,.951,0L590.666,264.253a.751.751,0,0,1-.143,1.252L418.311,350.626A.746.746,0,0,1,417.979,350.7ZM247.141,264.676l170.838,84.441,170.837-84.441L417.924,124.547Z" fill="#292a2e"></path>
      <g>
        <path d="M603.551.75,569.274,46.689V437.6a13.931,13.931,0,0,1-13.931,13.931H280.505a13.93,13.93,0,0,1-13.93-13.931V38.388A37.638,37.638,0,0,1,304.212.75Z" fill="#fff"></path>
        <path d="M555.343,452.276H280.505A14.7,14.7,0,0,1,265.824,437.6V38.388A38.432,38.432,0,0,1,304.212,0H603.551a.751.751,0,0,1,.6,1.2L570.024,46.938V437.6A14.7,14.7,0,0,1,555.343,452.276ZM304.212,1.5a36.93,36.93,0,0,0-36.888,36.888V437.6a13.2,13.2,0,0,0,13.181,13.181H555.343A13.2,13.2,0,0,0,568.524,437.6V46.689a.75.75,0,0,1,.149-.449L602.055,1.5Z" fill="#292a2e"></path>
      </g>
      <rect x="321.555" y="50.62" width="192.848" height="4.06" rx="1.117" fill="#262626" opacity="0.3"></rect>
      <g>
        <path d="M569.274,35.027a34.277,34.277,0,1,1,68.554,0V63.966H569.274Z" fill="#fff"></path>
        <path d="M637.827,64.716H569.274a.75.75,0,0,1-.75-.75V35.027a35.027,35.027,0,1,1,70.053,0V63.966A.75.75,0,0,1,637.827,64.716Zm-67.8-1.5h67.053V35.027a33.527,33.527,0,1,0-67.053,0Z" fill="#292a2e"></path>
      </g>
      <rect x="413.589" y="135.854" width="131.135" height="1.865" rx="0.932" fill="#262626" opacity="0.3"></rect>
      <rect x="413.589" y="122.612" width="131.135" height="1.865" rx="0.932" fill="#262626" opacity="0.3"></rect>
      <rect x="413.589" y="109.369" width="131.135" height="1.865" rx="0.932" fill="#262626" opacity="0.3"></rect>
      <rect x="413.589" y="96.127" width="131.135" height="1.865" rx="0.932" fill="#262626" opacity="0.3"></rect>
      <rect x="413.589" y="82.826" width="131.135" height="1.865" rx="0.932" fill="#262626" opacity="0.3"></rect>
      <rect x="413.589" y="149.096" width="77.688" height="1.865" rx="0.932" fill="#262626" opacity="0.3"></rect>
      <g>
        <rect x="291.234" y="72.183" width="105.314" height="87.43" rx="3.059" fill="#0cbc8b" opacity="0.9"></rect>
        <circle cx="327.964" cy="99.266" r="7.62" fill="#fff" opacity="0.8"></circle>
        <path d="M338.457,134.894l22.091-24.644a7.852,7.852,0,0,1,11.017-.666l24.983,21.874v28.154h-30.2" fill="#fff" opacity="0.5"></path>
        <path d="M366.349,159.612l-47.9-42.45a7.849,7.849,0,0,0-10.294-.1l-16.92,14.4v28.154" fill="#fff" opacity="0.8"></path>
      </g>
      <rect x="291.324" y="223.347" width="253.311" height="1.865" rx="0.932" fill="#262626" opacity="0.3"></rect>
      <rect x="291.324" y="210.105" width="253.311" height="1.865" rx="0.932" fill="#262626" opacity="0.3"></rect>
      <rect x="291.324" y="196.862" width="253.311" height="1.865" rx="0.932" fill="#262626" opacity="0.3"></rect>
      <rect x="291.324" y="183.62" width="253.311" height="1.865" rx="0.932" fill="#262626" opacity="0.3"></rect>
      <rect x="291.324" y="236.59" width="77.688" height="1.865" rx="0.932" fill="#262626" opacity="0.3"></rect>
      <rect x="291.324" y="299.712" width="253.311" height="1.865" rx="0.932" fill="#262626" opacity="0.3"></rect>
      <rect x="291.324" y="286.47" width="253.311" height="1.865" rx="0.932" fill="#262626" opacity="0.3"></rect>
      <rect x="291.324" y="273.227" width="253.311" height="1.865" rx="0.932" fill="#262626" opacity="0.3"></rect>
      <rect x="291.324" y="259.985" width="253.311" height="1.865" rx="0.932" fill="#262626" opacity="0.3"></rect>
      <rect x="291.324" y="312.954" width="77.688" height="1.865" rx="0.932" fill="#262626" opacity="0.3"></rect>
      <path d="M573.375,463.968H262.582a16.815,16.815,0,0,1-16.815-16.815V264.833l172.212,85.121L590.19,264.833v182.32A16.815,16.815,0,0,1,573.375,463.968Z" fill="#FF5D76"></path>
      <path d="M573.375,463.968H262.582a16.815,16.815,0,0,1-16.815-16.815V264.833l172.212,85.121L590.19,264.833v182.32A16.815,16.815,0,0,1,573.375,463.968Z" fill="#fff" opacity="0.78"></path>
      <path d="M573.375,464.718H262.582a17.585,17.585,0,0,1-17.565-17.565V264.833a.75.75,0,0,1,1.083-.672l171.879,84.956,171.879-84.956a.749.749,0,0,1,1.082.672v182.32A17.585,17.585,0,0,1,573.375,464.718ZM246.517,266.041V447.153a16.084,16.084,0,0,0,16.065,16.065H573.375a16.083,16.083,0,0,0,16.065-16.065V266.041L418.311,350.626a.754.754,0,0,1-.665,0Z" fill="#292a2e"></path>
    </g>
    <g>
      <path d="M668.771,505.474a.651.651,0,0,0,.584-.364l17.1-35.082a.649.649,0,0,0-1.166-.569l-17.1,35.082a.649.649,0,0,0,.582.933Z" fill="#292a2e"></path>
      <path d="M639.858,503.438a.649.649,0,0,0,.627-.484l19.792-75.565a.648.648,0,1,0-1.254-.329L639.23,502.625a.649.649,0,0,0,.463.792A.673.673,0,0,0,639.858,503.438Z" fill="#292a2e"></path>
      <path d="M602.1,506.783a.649.649,0,0,0,.6-.9L582.238,457.7a.648.648,0,0,0-1.194.506l20.46,48.186A.65.65,0,0,0,602.1,506.783Z" fill="#292a2e"></path>
      <path d="M639.124,517.947a.662.662,0,0,0,.158-.019.65.65,0,0,0,.472-.787l-23.775-95.11a.648.648,0,1,0-1.258.315l23.774,95.11A.648.648,0,0,0,639.124,517.947Z" fill="#292a2e"></path>
      <ellipse cx="609.611" cy="431.488" rx="27.189" ry="23.345" transform="translate(-41.904 796.641) rotate(-64.56)" fill="#0cbc8b"></ellipse>
      <ellipse cx="609.611" cy="431.488" rx="27.189" ry="23.345" transform="translate(-41.904 796.641) rotate(-64.56)" fill="#fff" opacity="0.4"></ellipse>
      <ellipse cx="578.003" cy="467.718" rx="16.307" ry="13.665" transform="translate(-71.782 829.142) rotate(-68.063)" fill="#0cbc8b"></ellipse>
      <ellipse cx="666.161" cy="438.999" rx="19.676" ry="24.148" transform="translate(-98.742 212.253) rotate(-16.873)" fill="#0cbc8b"></ellipse>
      <ellipse cx="688.577" cy="474.474" rx="10.657" ry="15" transform="matrix(0.986, -0.165, 0.165, 0.986, -68.917, 120.26)" fill="#0cbc8b"></ellipse>
      <rect x="583.019" y="493.672" width="100.991" height="25.167" transform="translate(1267.028 1012.511) rotate(-180)" fill="#292a2e"></rect>
      <rect x="583.019" y="493.672" width="100.991" height="25.167" transform="translate(1267.028 1012.511) rotate(-180)" fill="#fff" opacity="0.3"></rect>
      <ellipse cx="615.35" cy="481.088" rx="19.893" ry="16.747" transform="translate(-60.789 872.16) rotate(-68.063)" fill="#0cbc8b"></ellipse>
      <circle cx="653.3" cy="481.546" r="15.472" fill="#0cbc8b"></circle>
      <ellipse cx="578.003" cy="467.718" rx="16.307" ry="13.665" transform="translate(-71.782 829.142) rotate(-68.063)" fill="#fff" opacity="0.68"></ellipse>
      <ellipse cx="666.161" cy="438.999" rx="19.676" ry="24.148" transform="translate(-98.742 212.253) rotate(-16.873)" fill="#fff" opacity="0.68"></ellipse>
      <ellipse cx="688.577" cy="474.474" rx="10.657" ry="15" transform="matrix(0.986, -0.165, 0.165, 0.986, -68.917, 120.26)" fill="#fff" opacity="0.68"></ellipse>
      <ellipse cx="615.35" cy="481.088" rx="19.893" ry="16.747" transform="translate(-60.789 872.16) rotate(-68.063)" fill="#fff" opacity="0.68"></ellipse>
      <circle cx="653.3" cy="481.546" r="15.472" fill="#fff" opacity="0.4"></circle>
      <path d="M603.6,468.521c11.744,3.281,17.924-6.316,17.924-6.316l-.007-.013C615.256,460.324,608.311,462.951,603.6,468.521Z" fill="#292a2e"></path>
      <path d="M677.781,472.451a25.757,25.757,0,0,0,13.494-11.893,8.26,8.26,0,0,0-5.174-.875C681.211,460.5,677.891,465.888,677.781,472.451Z" fill="#292a2e"></path>
      <path d="M650.539,466.323a30,30,0,0,0,16.14,7.451,15.486,15.486,0,0,0-16.14-7.451Z" fill="#292a2e"></path>
    </g>
    <path d="M721.206,518.607H27.155a1,1,0,1,1,0-2H721.206a1,1,0,1,1,0,2Z" fill="#292a2e"></path>
    <g>
      <g id="b_4_ha">
        <path d="M397.6,200.93,384.889,226.6l.208-3.885a4.956,4.956,0,0,0-4.45-5.1,4.774,4.774,0,0,0-5.094,4.7l-.8,48.091,15.406.645a24.045,24.045,0,0,0,22.9-14.081l8.935-19.768a4.892,4.892,0,0,0-1.477-6.009,4.776,4.776,0,0,0-5.658.059.444.444,0,0,0-.162-.163.439.439,0,0,0-.418.008l1.655-3.643a4.957,4.957,0,0,0-2.03-6.455,4.774,4.774,0,0,0-5.994,1.334.427.427,0,0,0-.079-.128l.68-1.5a4.89,4.89,0,0,0-1.477-6.008,4.778,4.778,0,0,0-6.56.937.48.48,0,0,0-.095-.026l5.293-10.691a4.5,4.5,0,0,0-8.072-4Z" fill="#FAA896"></path>
        <path id="b_4_ha_sh" d="M400.76,216.111a.493.493,0,0,1-.046.149l-5.261,10.324a.448.448,0,1,1-.8-.407l5.261-10.325a.449.449,0,0,1,.845.259Z" fill="#0a0a0a" opacity="0.2"></path>
        <path id="b_4_ha_sh-2" data-name="b_4_ha_sh" d="M407.945,222.542a.432.432,0,0,1-.044.146l-4.072,8.147a.448.448,0,1,1-.8-.4l4.072-8.147a.448.448,0,0,1,.846.255Z" fill="#0a0a0a" opacity="0.2"></path>
        <path id="b_4_ha_sh-3" data-name="b_4_ha_sh" d="M414.931,231.546a.467.467,0,0,1-.049.155l-2.013,3.8a.449.449,0,1,1-.793-.42l2.013-3.8a.449.449,0,0,1,.842.265Z" fill="#0a0a0a" opacity="0.2"></path>
      </g>
      <path d="M367.079,238.454l-37.688,108.1-61.252-80.1L210.827,314.34,316.711,427.412a32.371,32.371,0,0,0,55.132-11.279l51.609-159.179Z" fill="#FF5D76"></path>
      <path d="M32.6,470.521A32.6,32.6,0,0,1,2.013,426.638c1.845-5,45.275-122.785,53.509-144.008l60.793,23.586c-4.629,11.932-21.4,57.161-34.88,93.6l22.388-2.433,7.048,64.826L36.128,470.33A32.436,32.436,0,0,1,32.6,470.521Z" fill="#FF5D76"></path>
      <polygon points="71.672 467.191 61.73 516.678 254.832 516.678 243.71 466.25 71.672 467.191" fill="#262626"></polygon>
      <path id="b_1_b" d="M113.424,246.038c-16.134,1.2-32.585,6.439-44.7,17.162-18.271,16.174-16.645,26.283-7.524,71.072,7.848,38.538,4.734,55.378,9.984,126.491.155,2.1.486,6.428.486,6.428l172.586-.286s16.17-94.349,25.1-137.866c6.79-33.083,24.623-73.244-50.57-81.339C218.588,247.679,158.281,242.709,113.424,246.038Z" fill="#FF5D76"></path>
      <g>
        <path id="h_3_sk" d="M218.786,247.7c-.2-.026-5.678,20.589-48.428,17.381-29.6-2.217-36.812-22.362-37.49-22.362,3.191-.679,8.372-1.383,9.79-2.139,4.66-2.5,8.055-5.552,9.763-12.094,1.337-5.116,2.018-24.81,2.018-34.691l45.541,10.233c-.635,11.147-5.078,36.986,10.494,41.56C213.065,246.347,215.856,247.043,218.786,247.7Z" fill="#FAA896"></path>
        <path d="M198.4,225.945c-17.953,1.417-41.016-6.164-45.4-30.117l-3.953-21.613c-4.38-23.953,4.649-45.672,27.2-49.8h0c22.553-4.125,42.962,12.21,47.343,36.163l1.75,9.569C227.029,179.341,230.437,223.418,198.4,225.945Z" fill="#FAA896"></path>
        <path d="M215.051,203.953c-3.223-16.192-4.7-27-4.529-38.393,4.539-7.962,3.346-17.1,2.314-21.049,4.449,2.427,6.309,2.692,10.5,2.692,0,0-7.507-30.127-33.022-38.234-4.691-1.826-16.67-4.132-32.576-1.951-13.529,1.856-46.877,11.971-51.641,49.515h0v.021c-.158,1.245-3.36,35.837-9.743,52.433-8.582,22.311-20.63,29.244-20.324,54.985.393,33.112,61.266,37.52,97.982,35.043s57.212-14.55,57.478-38.413C231.781,233.866,221.5,236.349,215.051,203.953Z" fill="#0a0a0a"></path>
        <path d="M215.061,190.38c-6.853,1.253-13.75-5.063-15-11.917s3.611-11.649,10.465-12.9Z" fill="#FAA896"></path>
      </g>
      <path d="M261.371,372.566a.445.445,0,0,1-.081-.008.434.434,0,0,1-.347-.507l7.237-45.333a.435.435,0,0,1,.854.162L261.8,372.212A.433.433,0,0,1,261.371,372.566Z" fill="#0c0c0c"></path>
      <path d="M71.672,467.627a.435.435,0,0,1-.434-.418L65.83,326.816a.435.435,0,0,1,.417-.452.456.456,0,0,1,.451.418l5.409,140.393a.436.436,0,0,1-.418.452Z" fill="#0c0c0c"></path>
    </g>
  </g>
</svg>