<svg id="visual" viewBox="0 0 1240 700" width="1240" height="700" xmlns="http://www.w3.org/2000/svg" xmlns:xlink="http://www.w3.org/1999/xlink" version="1.1"><rect x="0" y="0" width="1340" height="700" fill="#F2F6FF"></rect><defs><linearGradient id="grad1_0" x1="47.8%" y1="100%" x2="100%" y2="0%"><stop offset="11.714285714285714%" stop-color="#f2f6ff" stop-opacity="1"></stop><stop offset="88.28571428571429%" stop-color="#f2f6ff" stop-opacity="1"></stop></linearGradient></defs><defs><linearGradient id="grad2_0" x1="0%" y1="100%" x2="52.2%" y2="0%"><stop offset="11.714285714285714%" stop-color="#f2f6ff" stop-opacity="1"></stop><stop offset="88.28571428571429%" stop-color="#f2f6ff" stop-opacity="1"></stop></linearGradient></defs><g transform="translate(1340, 700)"><path d="M-455 0C-417.8 -46.8 -380.6 -93.5 -364 -150.8C-347.4 -208 -351.3 -275.8 -321.7 -321.7C-292.2 -367.6 -229.1 -391.6 -169.9 -410.2C-110.7 -428.8 -55.4 -441.9 0 -455L0 0Z" fill="#9178D9"></path></g><g transform="translate(0, 0)"><path d="M455 0C456.6 67.1 458.1 134.1 420.4 174.1C382.6 214.1 305.5 227 258.1 258.1C210.7 289.1 193 338.3 155 374.2C116.9 410 58.5 432.5 0 455L0 0Z" fill="#9178D9"></path></g></svg>